<svg width="163" height="41" viewBox="0 0 163 41" fill="none" xmlns="http://www.w3.org/2000/svg">
<g clip-path="url(#clip0)">
<path d="M23.7667 27.064C23.1725 31.5074 21.7861 34.9409 20.0036 37.3645C18.2211 39.7882 15.6464 41 12.4775 41C11.0911 41 10.1009 40.5961 9.11057 39.9902C8.31835 39.3842 7.52612 38.3744 6.93196 37.1626L6.13973 40.3941H0L5.94168 0H13.0717L10.8931 14.9458C11.6853 13.936 12.6756 13.3301 13.4678 12.7241C14.4581 12.1182 15.4484 11.9163 16.6367 11.9163C19.6075 11.9163 21.5881 13.3301 22.7764 15.9557C23.9648 18.5813 24.3609 22.2167 23.5686 26.6601L23.7667 27.064ZM16.6367 26.6601C17.0328 23.8325 17.0328 21.6108 16.8348 19.9951C16.4386 18.3793 15.6464 17.5714 14.062 17.5714C13.2697 17.5714 12.4775 17.9754 11.8834 18.3793C11.2892 18.7833 10.695 19.3892 10.1009 20.197L8.12029 33.1232C8.31835 33.931 8.71446 34.335 9.30863 34.7389C9.90279 35.1429 10.497 35.3448 11.4872 35.3448C12.8736 35.3448 14.062 34.7389 14.8542 33.3251C15.6464 31.9113 16.2406 29.8916 16.6367 27.266V26.6601Z" fill="#2B2A29"/>
<path d="M40.6014 36.5566C39.6112 37.9704 38.6209 39.1822 37.4325 39.7882C36.2442 40.596 34.8578 41 33.4714 41C31.0948 41 29.3123 39.9901 28.1239 37.9704C26.9356 35.9507 26.7375 32.7192 27.3317 28.6798L29.7084 12.5222H36.8384L34.4617 28.6798C34.0656 31.3054 34.0656 33.1231 34.4617 33.931C34.8578 34.9409 35.452 35.3448 36.6403 35.3448C37.4325 35.3448 38.2248 35.1428 38.8189 34.7389C39.4131 34.335 40.2053 33.931 40.6014 33.3251L43.5723 12.3202H50.7023L46.7412 40.3941H40.7995L40.6014 36.5566Z" fill="#2B2A29"/>
<path d="M64.7643 33.1231C64.9623 32.3152 64.7643 31.5074 64.1701 30.9015C63.5759 30.2955 62.5857 29.6896 60.8031 28.6798C58.2284 27.6699 56.2479 26.4581 55.0595 25.0443C53.6731 24.0345 53.277 22.2167 53.4751 20.197C53.8712 17.7734 54.8615 15.9556 56.842 14.3399C58.8226 12.7241 61.3973 11.9162 64.3682 11.9162C67.339 11.9162 69.7157 12.7241 71.3001 14.5418C73.0826 16.1576 73.6768 18.1773 73.2807 20.8029V21.0049H66.3487C66.5468 19.7931 66.3487 18.7832 65.9526 18.1773C65.5565 17.5714 64.7643 17.1675 63.774 17.1675C62.9818 17.1675 62.1895 17.3694 61.5954 17.9753C61.0012 18.5813 60.6051 19.1872 60.407 19.995C60.209 20.8029 60.407 21.6108 61.0012 22.0148C61.5954 22.4187 62.5856 23.2266 64.3682 24.0345C67.1409 25.0443 69.1215 26.2561 70.3098 27.6699C71.4982 29.0837 71.8943 30.9015 71.6962 33.1231C71.3001 35.5468 70.1118 37.5665 68.1312 38.9803C66.1507 40.3941 63.5759 41.2019 60.407 41.2019C57.2381 41.2019 54.8615 40.1921 53.277 38.3744C51.6926 36.5566 50.9004 34.3349 51.2965 32.1133V31.9113H57.8323C57.6343 33.5271 57.8323 34.5369 58.4265 35.1428C59.0206 35.7487 59.8129 36.1527 61.0012 36.1527C61.9915 36.1527 62.7837 35.9507 63.3779 35.3448C64.1701 34.7389 64.5662 33.931 64.7643 33.1231Z" fill="#2B2A29"/>
<path d="M84.7679 15.5517C85.7582 14.3399 86.7485 13.3301 87.7387 12.7241C88.9271 12.1182 90.1154 11.7143 91.3038 11.7143C93.6804 11.7143 95.4629 12.7241 96.6513 14.7438C97.8396 16.7635 98.0377 19.7931 97.4435 23.8325L95.2649 40.3941H88.1349L90.5115 23.8325C90.9076 21.4089 90.9076 19.7931 90.5115 18.9852C90.1154 18.1773 89.5212 17.5714 88.3329 17.5714C87.5407 17.5714 86.7485 17.7734 86.1543 18.1773C85.5601 18.5813 84.966 18.9852 84.3718 19.5911L81.2029 40.3941H74.0729L80.0146 0H87.1446L84.7679 15.5517Z" fill="#2B2A29"/>
<path d="M107.346 40.3941H100.216L104.375 12.3202H111.505L107.346 40.3941ZM112.496 5.65517H105.366L106.158 0H113.288L112.496 5.65517Z" fill="#2B2A29"/>
<path d="M88.9271 31.3054C88.9271 31.3054 65.9526 31.7093 65.9526 35.1428C65.9526 35.1428 64.1701 36.9606 76.4496 34.9409C76.4496 34.9409 106.356 29.0837 125.766 30.6995C125.766 30.6995 152.305 30.2955 162.802 33.729C162.802 33.729 132.697 25.2463 90.3135 31.1034L88.9271 31.3054Z" fill="#2B2A29"/>
<path d="M17.825 7.27099V9.69463C18.6173 9.49266 19.2114 9.49266 20.0037 9.29069V9.8966C18.0231 10.3005 16.0425 10.7045 14.6562 10.9065C14.6562 10.9065 14.6562 11.1084 14.4581 11.1084L14.26 10.0986H15.2503V5.85719H16.0425C16.0425 6.05916 16.0425 6.05916 15.8445 6.05916V9.8966L17.2309 9.69463V4.84734H18.0231C18.0231 4.84734 18.0231 5.04931 17.825 5.04931V6.66508H19.6076V7.27099H17.825ZM23.5687 4.64537H20.7959C20.9939 7.8769 21.5881 10.3005 22.5784 10.3005C22.7764 10.3005 22.9745 9.69463 22.9745 8.28084C23.1726 8.48281 23.3706 8.68478 23.5687 8.68478C23.3706 10.5025 23.1726 10.9065 22.3803 11.1084C20.7959 11.1084 20.2017 8.28084 19.8056 4.64537H14.4581V4.03946H20.2017C20.2017 3.23158 20.2017 2.4237 20.2017 1.61581H21.192C21.192 1.61581 21.192 1.81778 20.9939 1.81778C20.9939 2.62567 20.9939 3.43355 20.9939 4.03946H23.7667V4.64537H23.5687ZM19.2114 2.01976V2.62567H15.2503V2.01976H19.2114ZM21.5881 1.61581C22.1823 2.01976 22.9745 2.82764 23.1726 3.23158L22.5784 3.63552C22.3803 3.23158 21.7862 2.4237 21.192 2.01976L21.5881 1.61581Z" fill="#2B2A29"/>
<path d="M33.6695 5.45323H29.5104V9.69461H33.2734V10.3005H25.1531V9.89658H28.7181V5.45323H24.559V4.84732H28.7181V1.41382H29.7084C29.7084 1.41382 29.7084 1.61579 29.5104 1.61579V4.64535H33.6695V5.45323Z" fill="#2B2A29"/>
<path d="M37.2345 5.65516L36.0462 5.25122L36.2442 4.44334L37.6306 5.04925V4.0394H38.6209V5.25122L39.6112 4.64531L39.8093 5.45319L38.4229 5.85713L39.2151 6.66501L38.4229 7.06895L37.6306 6.0591L36.8384 6.86698L36.0462 6.46304L37.2345 5.65516Z" fill="#C64750"/>
<path d="M42.384 8.68465H40.9976V1.81766H42.384V8.68465Z" fill="#C64750"/>
<path d="M46.5431 8.68472C45.7509 8.68472 44.9587 8.48275 44.5626 8.07881C44.1665 7.67487 43.7704 7.06896 43.7704 6.46304V6.26107C43.7704 5.65516 43.9684 5.04925 44.5626 4.64531C45.1568 4.24137 45.7509 4.0394 46.5431 4.0394C47.3354 4.0394 47.9295 4.24137 48.3256 4.64531C48.7218 5.04925 48.9198 5.65516 48.9198 6.26107V6.86698H45.3548C45.3548 7.27093 45.5529 7.4729 45.7509 7.87684C45.949 8.07881 46.3451 8.28078 46.9393 8.28078C47.3354 8.28078 47.5334 8.28078 47.9295 8.07881C48.3257 7.87684 48.5237 7.87684 48.7218 7.87684L49.1179 8.48275C48.9198 8.68472 48.5237 8.68472 48.1276 8.88669C47.3354 8.68472 46.9393 8.68472 46.5431 8.68472ZM46.3451 4.64531C45.949 4.64531 45.7509 4.64531 45.5529 4.84728C45.3548 5.04925 45.1568 5.25122 45.1568 5.65516H47.5334C47.5334 5.45319 47.5334 5.04925 47.3354 4.84728C46.9393 4.84728 46.7412 4.64531 46.3451 4.64531Z" fill="#C64750"/>
<path d="M49.712 6.46304C49.712 5.65516 49.9101 5.04925 50.3062 4.64531C50.7023 4.24137 51.2965 4.0394 52.0887 4.0394C52.4848 4.0394 52.6829 4.0394 53.079 4.24137C53.4751 4.44334 53.6732 4.44334 53.6732 4.84728V4.0394H54.8615V8.68472C54.8615 9.29063 54.6634 9.69457 54.0693 10.0985C53.6732 10.5025 52.8809 10.5025 52.0887 10.5025C51.8906 10.5025 51.4945 10.5025 51.0984 10.5025C50.7023 10.5025 50.5043 10.3005 50.1081 10.3005L50.3062 9.4926C50.5043 9.4926 50.7023 9.69457 51.0984 9.69457C51.2965 9.69457 51.6926 9.69457 51.8907 9.69457C52.2868 9.69457 52.6829 9.69457 52.8809 9.4926C53.277 9.29063 53.4751 9.08866 53.4751 8.68472V8.28078C53.277 8.48275 53.079 8.68472 52.8809 8.68472C52.6829 8.68472 52.2868 8.88669 52.0887 8.88669C51.2965 8.88669 50.7023 8.68472 50.3062 8.28078C49.9101 7.67487 49.712 7.27093 49.712 6.46304ZM50.9004 6.46304C50.9004 6.86698 51.0984 7.27093 51.2965 7.4729C51.4945 7.67487 51.8907 7.87684 52.2868 7.87684C52.4848 7.87684 52.8809 7.87684 53.079 7.67487C53.277 7.4729 53.4751 7.4729 53.4751 7.27093V5.25122C53.277 5.04925 53.277 4.84728 53.079 4.84728C52.8809 4.84728 52.6829 4.64531 52.2868 4.64531C51.8907 4.64531 51.4945 4.84728 51.2965 5.04925C51.0984 5.25122 50.9004 5.85713 50.9004 6.46304Z" fill="#C64750"/>
<path d="M59.8129 8.68463C59.8129 8.48266 59.8129 8.48266 59.6148 8.28069C59.4168 8.07872 59.6148 8.07872 59.6148 7.87675C59.4168 8.07872 59.2187 8.28069 58.8226 8.48266C58.4265 8.68463 58.2284 8.68463 57.8323 8.68463C57.2382 8.68463 56.644 8.48266 56.446 8.28069C56.0498 8.07872 55.8518 7.67478 55.8518 7.27084C55.8518 6.8669 56.0498 6.46296 56.446 6.26099C56.8421 6.05902 57.6343 5.85705 58.4265 5.85705H59.4168V5.4531C59.4168 5.25113 59.4168 5.04916 59.2187 4.84719C59.0207 4.64522 58.8226 4.64522 58.4265 4.64522C58.0304 4.64522 57.8323 4.64522 57.6343 4.84719C57.4362 5.04916 57.4362 5.25113 57.4362 5.25113H56.2479C56.2479 4.84719 56.446 4.64522 56.8421 4.24128C57.2382 4.03931 57.8323 3.83734 58.6246 3.83734C59.2187 3.83734 59.8129 4.03931 60.209 4.24128C60.6051 4.44325 60.8032 4.84719 60.8032 5.4531V7.47281C60.8032 7.67478 60.8032 7.87675 60.8032 8.07872C60.8032 8.28069 60.8032 8.48266 61.0012 8.68463H59.8129ZM58.0304 7.87675C58.4265 7.87675 58.6246 7.87675 59.0207 7.67478C59.2187 7.47281 59.4168 7.47281 59.6148 7.27084V6.66493H58.6246C58.2284 6.66493 58.0304 6.66493 57.6343 6.8669C57.4362 7.06887 57.2382 7.27084 57.2382 7.47281C57.2382 7.67478 57.2382 7.87675 57.4362 7.87675C57.6343 7.87675 57.8323 7.87675 58.0304 7.87675Z" fill="#C64750"/>
<path d="M64.7643 7.87684C65.1604 7.87684 65.3585 7.87684 65.5565 7.67487C65.7546 7.4729 65.9526 7.27093 65.9526 7.06896H67.141C67.141 7.4729 66.9429 7.87684 66.5468 8.28078C66.1507 8.68472 65.5565 8.68472 64.9624 8.68472C64.1701 8.68472 63.3779 8.48275 62.9818 8.07881C62.5857 7.67487 62.1896 7.06896 62.1896 6.46304V6.26107C62.1896 5.65516 62.3876 5.04925 62.9818 4.64531C63.3779 4.24137 64.1701 4.0394 64.9624 4.0394C65.5565 4.0394 66.1507 4.24137 66.5468 4.44334C66.9429 4.84728 67.141 5.25122 67.141 5.65516H65.9526C65.9526 5.45319 65.7546 5.25122 65.5565 5.04925C65.3585 4.84728 65.1604 4.84728 64.7643 4.84728C64.3682 4.84728 63.9721 5.04925 63.774 5.25122C63.576 5.45319 63.3779 5.85713 63.3779 6.26107V6.46304C63.3779 6.86699 63.576 7.27093 63.774 7.4729C63.774 7.87684 64.1701 7.87684 64.7643 7.87684Z" fill="#C64750"/>
<path d="M70.1118 6.86698L70.3098 7.27093L71.4982 4.0394H72.8846L70.5079 9.4926C70.3098 9.89654 70.1118 10.0985 69.9137 10.3005C69.7157 10.5025 69.3196 10.7044 68.7254 10.7044C68.5273 10.7044 68.5273 10.7044 68.3293 10.7044C68.1312 10.7044 68.1312 10.7044 67.9332 10.7044L68.1312 9.89654H68.3293H68.5273C68.7254 9.89654 68.9235 9.89654 69.1215 9.69457C69.3196 9.4926 69.3196 9.4926 69.5176 9.29063L69.7157 8.88669L67.5371 4.0394H68.9235L70.1118 6.86698Z" fill="#C64750"/>
<path d="M74.6671 5.65508L73.4788 5.25113L73.6768 4.44325L75.0632 4.84719V3.83734H76.0535V5.04916L77.2418 4.64522L77.4399 5.45311L76.0535 5.85705L76.8457 6.66493L76.0535 7.06887L75.2613 6.05902L74.469 6.8669L73.6768 6.46296L74.6671 5.65508Z" fill="#C64750"/>
</g>
<defs>
<clipPath id="clip0">
<rect width="163" height="41" fill="white"/>
</clipPath>
</defs>
</svg>
