<svg width="286" height="72" viewBox="0 0 286 72" fill="none" xmlns="http://www.w3.org/2000/svg">
<g clip-path="url(#clip0)">
<path d="M41.7011 47.5271C40.6586 55.3301 38.226 61.3596 35.0984 65.6158C31.9708 69.8719 27.4532 72 21.8931 72C19.4605 72 17.723 71.2906 15.9854 70.2266C14.5954 69.1626 13.2053 67.3892 12.1628 65.2611L10.7728 70.936H0L10.4253 0H22.9356L19.113 26.2463C20.503 24.4729 22.2406 23.4089 23.6306 22.3448C25.3682 21.2808 27.1057 20.9261 29.1908 20.9261C34.4034 20.9261 37.8785 23.4089 39.9635 28.0197C42.0486 32.6305 42.7436 39.0148 41.3536 46.8177L41.7011 47.5271ZM29.1908 46.8177C29.8858 41.8522 29.8858 37.9507 29.5383 35.1133C28.8433 32.2759 27.4532 30.8571 24.6731 30.8571C23.2831 30.8571 21.8931 31.5665 20.8505 32.2759C19.808 32.9852 18.7655 34.0493 17.723 35.468L14.2479 58.1675C14.5954 59.5862 15.2904 60.2956 16.3329 61.0049C17.3755 61.7143 18.418 62.069 20.1555 62.069C22.5881 62.069 24.6731 61.0049 26.0632 58.5222C27.4532 56.0394 28.4957 52.4926 29.1908 47.8818V46.8177Z" fill="white"/>
<path d="M71.2393 64.1971C69.5018 66.6798 67.7643 68.8079 65.6792 69.872C63.5941 71.2907 61.1616 72 58.729 72C54.5589 72 51.4313 70.2266 49.3463 66.6798C47.2612 63.133 46.9137 57.4582 47.9562 50.3646L52.1263 21.9902H64.6367L60.4666 50.3646C59.7715 54.9754 59.7715 58.1675 60.4666 59.5863C61.1616 61.3596 62.2041 62.069 64.2892 62.069C65.6792 62.069 67.0692 61.7143 68.1118 61.005C69.1543 60.2956 70.5443 59.5863 71.2393 58.5222L76.452 21.6355H88.9623L82.0121 70.936H71.5869L71.2393 64.1971Z" fill="white"/>
<path d="M113.635 58.1674C113.983 56.7487 113.635 55.33 112.593 54.266C111.55 53.2019 109.813 52.1379 106.685 50.3645C102.168 48.5911 98.6926 46.463 96.6075 43.9802C94.175 42.2068 93.4799 39.0147 93.8275 35.4679C94.5225 31.2118 96.26 28.0197 99.7351 25.1822C103.21 22.3448 107.728 20.9261 112.94 20.9261C118.153 20.9261 122.323 22.3448 125.103 25.5369C128.231 28.3743 129.273 31.9211 128.578 36.532V36.8866H116.416C116.763 34.7586 116.416 32.9852 115.721 31.9211C115.025 30.8571 113.635 30.1477 111.898 30.1477C110.508 30.1477 109.118 30.5024 108.075 31.5665C107.033 32.6305 106.338 33.6945 105.99 35.1132C105.643 36.532 105.99 37.9507 107.033 38.66C108.075 39.3694 109.813 40.7881 112.94 42.2068C117.806 43.9802 121.281 46.1083 123.366 48.5911C125.451 51.0738 126.146 54.266 125.798 58.1674C125.103 62.4236 123.018 65.9704 119.543 68.4532C116.068 70.9359 111.55 72.3546 105.99 72.3546C100.43 72.3546 96.26 70.5812 93.4799 67.3891C90.6999 64.197 89.3098 60.2955 90.0049 56.394V56.0394H101.473C101.125 58.8768 101.473 60.6502 102.515 61.7142C103.558 62.7783 104.948 63.4876 107.033 63.4876C108.77 63.4876 110.16 63.133 111.203 62.0689C112.593 61.0049 113.288 59.5862 113.635 58.1674Z" fill="white"/>
<path d="M148.734 27.3103C150.471 25.1823 152.209 23.4089 153.946 22.3448C156.032 21.2808 158.117 20.5714 160.202 20.5714C164.372 20.5714 167.499 22.3448 169.584 25.8916C171.669 29.4384 172.017 34.7586 170.974 41.8522L167.152 70.936H154.642L158.812 41.8522C159.507 37.5961 159.507 34.7586 158.812 33.3399C158.117 31.9212 157.074 30.8571 154.989 30.8571C153.599 30.8571 152.209 31.2118 151.166 31.9212C150.124 32.6305 149.081 33.3399 148.039 34.4039L142.479 70.936H129.968L140.394 0H152.904L148.734 27.3103Z" fill="white"/>
<path d="M188.35 70.936H175.84L183.137 21.6355H195.648L188.35 70.936ZM197.385 9.93104H184.875L186.265 0H198.775L197.385 9.93104Z" fill="white"/>
<path d="M156.032 54.9753C156.032 54.9753 115.721 55.6846 115.721 61.7142C115.721 61.7142 112.593 64.9063 134.139 61.3595C134.139 61.3595 186.612 51.0738 220.668 53.9112C220.668 53.9112 267.235 53.2019 285.653 59.2314C285.653 59.2314 232.831 44.3349 158.464 54.6206L156.032 54.9753Z" fill="white"/>
<path d="M31.2759 12.7685V17.0247C32.6659 16.67 33.7084 16.67 35.0985 16.3153V17.3793C31.6234 18.0887 28.1483 18.7981 25.7157 19.1527C25.7157 19.1527 25.7157 19.5074 25.3682 19.5074L25.0207 17.734H26.7582V10.2857H28.1483C28.1483 10.6404 28.1483 10.6404 27.8008 10.6404V17.3793L30.2333 17.0247V8.51234H31.6234C31.6234 8.51234 31.6234 8.86702 31.2759 8.86702V11.7045H34.4034V12.7685H31.2759ZM41.3536 8.15766H36.4885C36.836 13.8325 37.8785 18.0887 39.6161 18.0887C39.9636 18.0887 40.3111 17.0247 40.3111 14.5419C40.6586 14.8966 41.0061 15.2513 41.3536 15.2513C41.0061 18.4434 40.6586 19.1527 39.2686 19.5074C36.4885 19.5074 35.446 14.5419 34.7509 8.15766H25.3682V7.09362H35.446C35.446 5.6749 35.446 4.25618 35.446 2.83746H37.1835C37.1835 2.83746 37.1835 3.19214 36.836 3.19214C36.836 4.61086 36.836 6.02958 36.836 7.09362H41.7011V8.15766H41.3536ZM33.7084 3.54682V4.61086H26.7582V3.54682H33.7084ZM37.8785 2.83746C38.9211 3.54682 40.3111 4.96554 40.6586 5.6749L39.6161 6.38426C39.2686 5.6749 38.226 4.25618 37.1835 3.54682L37.8785 2.83746Z" fill="white"/>
<path d="M59.0766 9.57639H51.7789V17.0247H58.3816V18.0887H44.1337V17.3793H50.3889V9.57639H43.0912V8.51235H50.3889V2.48279H52.1264C52.1264 2.48279 52.1264 2.83747 51.7789 2.83747V8.15767H59.0766V9.57639Z" fill="white"/>
<path d="M65.3318 9.93098L63.2467 9.22162L63.5942 7.8029L66.0268 8.86694V7.09354H67.7643V9.22162L69.5019 8.15758L69.8494 9.5763L67.4168 10.2857L68.8068 11.7044L67.4168 12.4137L66.0268 10.6403L64.6367 12.0591L63.2467 11.3497L65.3318 9.93098Z" fill="white"/>
<path d="M74.367 15.2511H71.9344V3.19199H74.367V15.2511Z" fill="white"/>
<path d="M81.6647 15.2512C80.2746 15.2512 78.8846 14.8965 78.1896 14.1871C77.4946 13.4778 76.7996 12.4137 76.7996 11.3497V10.995C76.7996 9.93098 77.1471 8.86694 78.1896 8.15758C79.2321 7.44822 80.2746 7.09354 81.6647 7.09354C83.0547 7.09354 84.0972 7.44822 84.7923 8.15758C85.4873 8.86694 85.8348 9.93098 85.8348 10.995V12.0591H79.5796C79.5796 12.7684 79.9271 13.1231 80.2746 13.8325C80.6222 14.1871 81.3172 14.5418 82.3597 14.5418C83.0547 14.5418 83.4022 14.5418 84.0972 14.1871C84.7923 13.8325 85.1398 13.8325 85.4873 13.8325L86.1823 14.8965C85.8348 15.2512 85.1398 15.2512 84.4447 15.6059C83.0547 15.2512 82.3597 15.2512 81.6647 15.2512ZM81.3172 8.15758C80.6222 8.15758 80.2746 8.15758 79.9271 8.51226C79.5796 8.86694 79.2321 9.22162 79.2321 9.93098H83.4022C83.4022 9.5763 83.4022 8.86694 83.0547 8.51226C82.3597 8.51226 82.0122 8.15758 81.3172 8.15758Z" fill="white"/>
<path d="M87.2248 11.3497C87.2248 9.93097 87.5723 8.86694 88.2673 8.15758C88.9624 7.44822 90.0049 7.09354 91.3949 7.09354C92.0899 7.09354 92.4374 7.09354 93.1325 7.44822C93.8275 7.8029 94.175 7.8029 94.175 8.51226V7.09354H96.26V15.2512C96.26 16.3152 95.9125 17.0246 94.87 17.7339C94.175 18.4433 92.7849 18.4433 91.3949 18.4433C91.0474 18.4433 90.3524 18.4433 89.6574 18.4433C88.9624 18.4433 88.6148 18.0886 87.9198 18.0886L88.2673 16.6699C88.6148 16.6699 88.9624 17.0246 89.6574 17.0246C90.0049 17.0246 90.6999 17.0246 91.0474 17.0246C91.7424 17.0246 92.4374 17.0246 92.785 16.6699C93.48 16.3152 93.8275 15.9605 93.8275 15.2512V14.5418C93.48 14.8965 93.1325 15.2512 92.785 15.2512C92.4374 15.2512 91.7424 15.6059 91.3949 15.6059C90.0049 15.6059 88.9624 15.2512 88.2673 14.5418C87.5723 13.4778 87.2248 12.7684 87.2248 11.3497ZM89.3099 11.3497C89.3099 12.0591 89.6574 12.7684 90.0049 13.1231C90.3524 13.4778 91.0474 13.8325 91.7424 13.8325C92.0899 13.8325 92.7849 13.8325 93.1325 13.4778C93.48 13.1231 93.8275 13.1231 93.8275 12.7684V9.22161C93.48 8.86693 93.48 8.51226 93.1325 8.51226C92.7849 8.51226 92.4374 8.15758 91.7424 8.15758C91.0474 8.15758 90.3524 8.51226 90.0049 8.86694C89.6574 9.22162 89.3099 10.2857 89.3099 11.3497Z" fill="white"/>
<path d="M104.948 15.2511C104.948 14.8964 104.948 14.8964 104.6 14.5418C104.253 14.1871 104.6 14.1871 104.6 13.8324C104.253 14.1871 103.905 14.5418 103.21 14.8964C102.515 15.2511 102.168 15.2511 101.473 15.2511C100.43 15.2511 99.3877 14.8964 99.0401 14.5418C98.3451 14.1871 97.9976 13.4777 97.9976 12.7684C97.9976 12.059 98.3451 11.3496 99.0401 10.995C99.7352 10.6403 101.125 10.2856 102.515 10.2856H104.253V9.57624C104.253 9.22156 104.253 8.86688 103.905 8.5122C103.558 8.15752 103.21 8.15752 102.515 8.15752C101.82 8.15752 101.473 8.15752 101.125 8.5122C100.778 8.86688 100.778 9.22156 100.778 9.22156H98.6926C98.6926 8.5122 99.0402 8.15752 99.7352 7.44816C100.43 7.09348 101.473 6.7388 102.863 6.7388C103.905 6.7388 104.948 7.09348 105.643 7.44816C106.338 7.80284 106.685 8.5122 106.685 9.57624V13.123C106.685 13.4777 106.685 13.8324 106.685 14.1871C106.685 14.5418 106.685 14.8964 107.033 15.2511H104.948ZM101.82 13.8324C102.515 13.8324 102.863 13.8324 103.558 13.4777C103.905 13.123 104.253 13.123 104.6 12.7684V11.7043H102.863C102.168 11.7043 101.82 11.7043 101.125 12.059C100.778 12.4137 100.43 12.7684 100.43 13.123C100.43 13.4777 100.43 13.8324 100.778 13.8324C101.125 13.8324 101.473 13.8324 101.82 13.8324Z" fill="white"/>
<path d="M113.636 13.8325C114.331 13.8325 114.678 13.8325 115.026 13.4778C115.373 13.1231 115.721 12.7684 115.721 12.4137H117.806C117.806 13.1231 117.458 13.8325 116.763 14.5418C116.068 15.2512 115.026 15.2512 113.983 15.2512C112.593 15.2512 111.203 14.8965 110.508 14.1871C109.813 13.4778 109.118 12.4137 109.118 11.3497V10.995C109.118 9.93098 109.465 8.86694 110.508 8.15758C111.203 7.44822 112.593 7.09354 113.983 7.09354C115.026 7.09354 116.068 7.44822 116.763 7.8029C117.458 8.51226 117.806 9.22162 117.806 9.93098H115.721C115.721 9.5763 115.373 9.22162 115.026 8.86694C114.678 8.51226 114.331 8.51226 113.636 8.51226C112.941 8.51226 112.245 8.86694 111.898 9.22162C111.55 9.5763 111.203 10.2857 111.203 10.995V11.3497C111.203 12.0591 111.55 12.7684 111.898 13.1231C111.898 13.8325 112.593 13.8325 113.636 13.8325Z" fill="white"/>
<path d="M123.018 12.0591L123.366 12.7684L125.451 7.09354H127.883L123.713 16.6699C123.366 17.3792 123.018 17.7339 122.671 18.0886C122.323 18.4433 121.628 18.798 120.586 18.798C120.238 18.798 120.238 18.798 119.891 18.798C119.543 18.798 119.543 18.798 119.196 18.798L119.543 17.3793H119.891H120.238C120.586 17.3793 120.933 17.3793 121.281 17.0246C121.628 16.6699 121.628 16.6699 121.976 16.3152L122.323 15.6059L118.501 7.09354H120.933L123.018 12.0591Z" fill="white"/>
<path d="M131.011 9.93092L128.926 9.22156L129.273 7.80284L131.706 8.5122V6.7388H133.444V8.86688L135.529 8.15752L135.876 9.57624L133.444 10.2856L134.834 11.7043L133.444 12.4137L132.053 10.6403L130.663 12.059L129.273 11.3496L131.011 9.93092Z" fill="white"/>
</g>
<defs>
<clipPath id="clip0">
<rect width="286" height="72" fill="white"/>
</clipPath>
</defs>
</svg>
